<?xml version="1.0" encoding="UTF-8" standalone="no"?>
<svg
   width="292.593mm"
   height="246.032mm"
   viewBox="0 0 1106 930"
   version="1.1"
   id="svg12"
   sodipodi:docname="frontal.svg"
   inkscape:version="1.4 (e7c3feb100, 2024-10-09)"
   inkscape:export-filename="/home/luciano/Projetos/Vapomatic/arte/lineart/frontal/frontal.png"
   inkscape:export-xdpi="150.00569"
   inkscape:export-ydpi="150.00569"
   xmlns:inkscape="http://www.inkscape.org/namespaces/inkscape"
   xmlns:sodipodi="http://sodipodi.sourceforge.net/DTD/sodipodi-0.dtd"
   xmlns:xlink="http://www.w3.org/1999/xlink"
   xmlns="http://www.w3.org/2000/svg"
   xmlns:svg="http://www.w3.org/2000/svg"
   xmlns:rdf="http://www.w3.org/1999/02/22-rdf-syntax-ns#"
   xmlns:cc="http://creativecommons.org/ns#"
   xmlns:dc="http://purl.org/dc/elements/1.1/">
  <metadata
     id="metadata18">
    <rdf:RDF>
      <cc:Work
         rdf:about="">
        <dc:format>image/svg+xml</dc:format>
        <dc:type
           rdf:resource="http://purl.org/dc/dcmitype/StillImage" />
      </cc:Work>
    </rdf:RDF>
  </metadata>
  <defs
     id="defs16">
    <linearGradient
       id="linearGradient19"
       inkscape:collect="always">
      <stop
         style="stop-color:#555753;stop-opacity:1;"
         offset="0"
         id="stop19" />
      <stop
         style="stop-color:#555753;stop-opacity:0;"
         offset="1"
         id="stop20" />
    </linearGradient>
    <linearGradient
       id="linearGradient17"
       inkscape:collect="always">
      <stop
         style="stop-color:#babdb6;stop-opacity:1"
         offset="0"
         id="stop17" />
      <stop
         style="stop-color:#2e3436;stop-opacity:1"
         offset="1"
         id="stop18" />
    </linearGradient>
    <linearGradient
       id="linearGradient15"
       inkscape:collect="always">
      <stop
         style="stop-color:#2e3436;stop-opacity:1"
         offset="0"
         id="stop15" />
      <stop
         style="stop-color:#888a85;stop-opacity:0;"
         offset="1"
         id="stop16" />
    </linearGradient>
    <linearGradient
       id="linearGradient14"
       inkscape:collect="always">
      <stop
         style="stop-color:#eeeeec;stop-opacity:1"
         offset="0"
         id="stop13" />
      <stop
         style="stop-color:#555753;stop-opacity:1"
         offset="1"
         id="stop14" />
    </linearGradient>
    <linearGradient
       id="linearGradient11"
       inkscape:collect="always">
      <stop
         style="stop-color:#babdb6;stop-opacity:1"
         offset="0"
         id="stop11" />
      <stop
         style="stop-color:#888a85;stop-opacity:0;"
         offset="1"
         id="stop12" />
    </linearGradient>
    <linearGradient
       id="linearGradient9"
       inkscape:collect="always">
      <stop
         style="stop-color:#ffffff;stop-opacity:1;"
         offset="0"
         id="stop9" />
      <stop
         style="stop-color:#ffffff;stop-opacity:0;"
         offset="1"
         id="stop10" />
    </linearGradient>
    <linearGradient
       id="linearGradient7"
       inkscape:collect="always">
      <stop
         style="stop-color:#ffffff;stop-opacity:1;"
         offset="0"
         id="stop7" />
      <stop
         style="stop-color:#ffffff;stop-opacity:0;"
         offset="1"
         id="stop8" />
    </linearGradient>
    <linearGradient
       id="linearGradient2"
       inkscape:collect="always">
      <stop
         style="stop-color:#555753;stop-opacity:1;"
         offset="0"
         id="stop3" />
      <stop
         style="stop-color:#eeeeec;stop-opacity:1"
         offset="1"
         id="stop4" />
    </linearGradient>
    <linearGradient
       id="linearGradient1"
       inkscape:collect="always">
      <stop
         style="stop-color:#ffffff;stop-opacity:1"
         offset="0"
         id="stop1" />
      <stop
         style="stop-color:#888a85;stop-opacity:1"
         offset="1"
         id="stop2" />
    </linearGradient>
    <linearGradient
       inkscape:collect="always"
       xlink:href="#linearGradient7"
       id="linearGradient8"
       x1="387.918"
       y1="763.14771"
       x2="702.62726"
       y2="763.14771"
       gradientUnits="userSpaceOnUse" />
    <linearGradient
       inkscape:collect="always"
       xlink:href="#linearGradient9"
       id="linearGradient10"
       x1="453.97717"
       y1="818.13782"
       x2="653.98749"
       y2="818.13782"
       gradientUnits="userSpaceOnUse" />
    <linearGradient
       inkscape:collect="always"
       xlink:href="#linearGradient11"
       id="linearGradient12"
       x1="549.51514"
       y1="619.60089"
       x2="549.51514"
       y2="406.55069"
       gradientUnits="userSpaceOnUse" />
    <radialGradient
       inkscape:collect="always"
       xlink:href="#linearGradient14"
       id="radialGradient12"
       cx="534.61316"
       cy="314.5239"
       fx="534.61316"
       fy="314.5239"
       r="44.176807"
       gradientTransform="matrix(3.3842424,0,0,2.2010054,-1274.6474,-377.74491)"
       gradientUnits="userSpaceOnUse" />
    <radialGradient
       inkscape:collect="always"
       xlink:href="#linearGradient2"
       id="radialGradient14"
       cx="534.15961"
       cy="320.92905"
       fx="534.15961"
       fy="320.92905"
       r="63.645836"
       gradientTransform="matrix(1.7428282,0,0,0.87916128,-396.78882,38.780654)"
       gradientUnits="userSpaceOnUse" />
    <linearGradient
       inkscape:collect="always"
       xlink:href="#linearGradient15"
       id="linearGradient16"
       x1="543.12354"
       y1="151.67776"
       x2="543.12354"
       y2="377.22839"
       gradientUnits="userSpaceOnUse" />
    <linearGradient
       inkscape:collect="always"
       xlink:href="#linearGradient17"
       id="linearGradient18"
       x1="538.38605"
       y1="118.58275"
       x2="538.38605"
       y2="347.68677"
       gradientUnits="userSpaceOnUse" />
    <linearGradient
       inkscape:collect="always"
       xlink:href="#linearGradient19"
       id="linearGradient20"
       x1="540.65454"
       y1="190.67653"
       x2="540.65454"
       y2="270.65604"
       gradientUnits="userSpaceOnUse" />
    <radialGradient
       inkscape:collect="always"
       xlink:href="#linearGradient1"
       id="radialGradient20"
       cx="538.96362"
       cy="758.23682"
       fx="538.96362"
       fy="758.23682"
       r="447.40878"
       gradientTransform="matrix(1.6355971,0,0,2.2746682,-342.56374,-994.18429)"
       gradientUnits="userSpaceOnUse" />
  </defs>
  <sodipodi:namedview
     pagecolor="#ffffff"
     bordercolor="#666666"
     borderopacity="1"
     objecttolerance="10"
     gridtolerance="10"
     guidetolerance="10"
     inkscape:pageopacity="0"
     inkscape:pageshadow="2"
     inkscape:window-width="640"
     inkscape:window-height="480"
     id="namedview14"
     showgrid="false"
     inkscape:zoom="0.59084955"
     inkscape:cx="440.04434"
     inkscape:cy="463.73903"
     inkscape:current-layer="svg12"
     inkscape:document-rotation="0"
     inkscape:showpageshadow="2"
     inkscape:pagecheckerboard="0"
     inkscape:deskcolor="#d1d1d1"
     inkscape:document-units="mm" />
  <path
     id="Selection"
     fill="none"
     stroke="#000000"
     stroke-width="1"
     d="m 390,895.99825 c 0,0 -151,0 -151,0 -15.61,-0.02 -32.94,-5.77 -41.12,-20 -4.03,-7.01 -5.79,-16.15 -7.75,-24 0,0 -9,-35 -9,-35 0,0 -29.01,-112 -29.01,-112 0,0 -40.99,-158 -40.99,-158 0,0 -10.55,-41 -10.55,-41 0,0 -7.49,-31 -7.49,-31 -0.48,-7.99 4.21,-15.08 7.66,-22 0,0 19,-39 19,-39 0,0 71,-143 71,-143 0,0 44,-89 44,-89 0,0 6.94,-14 6.94,-14 5.15,-11.2 7.22,-18.27 18.31,-25.45 6.32,-4.1 17.7,-8.23 25,-11.15 0,0 41,-16.4 41,-16.4 0,0 128,-51.399986 128,-51.399986 0,0 43,-17.2 43,-17.2 14.22,-5.69 28.27,-11.38 44,-10.31 16.64,1.13 26.98,6.2 42,12.31 0,0 25,10.18 25,10.18 0,0 94,38.21999 94,38.21999 0,0 78,31.779996 78,31.779996 11.41,4.79 29.26,10.28 37.99,18.51 6.75,6.37 9.23,12.85 13.26,20.91 0,0 15.06,30 15.06,30 0,0 23.95,47 23.95,47 0,0 36.99,72 36.99,72 0,0 57,112 57,112 0,0 15,29 15,29 2.86,5.73 6.11,11.34 5.56,18 0,0 -8.93,34 -8.93,34 0,0 -22.17,80 -22.17,80 0,0 -25.13,91 -25.13,91 0,0 -34.43,124 -34.43,124 0,0 -13.29,48 -13.29,48 -2.34,8.27 -4.42,19.13 -9.47,26 -9.72,13.22 -25.63,17.98 -41.39,18 0,0 -112,0 -112,0 0,0 -29,0 -29,0 -2.3,0 -6.41,0.38 -7.98,-1.6 -1.59,-2.01 -0.99,-11.46 -1.02,-14.4 0,0 -0.96,-10 -0.96,-10 0,0 0,-11 0,-11 0,0 -1.04,-15 -1.04,-15 0,0 0,-28 0,-28 0,0 1,-17 1,-17 0,0 0,-24 0,-24 0,0 1,-17 1,-17 0,0 1,-68 1,-68 0,0 1,-17 1,-17 0,0 0,-27 0,-27 0,0 1,-14 1,-14 0,0 0,-26 0,-26 0,0 1,-17 1,-17 0,0 1,-67 1,-67 0,0 1,-17 1,-17 0,0 0,-25 0,-25 0,0 1,-17 1,-17 0,0 0,-27 0,-27 0,0 1,-14 1,-14 0,0 0,-26 0,-26 0,0 1,-17 1,-17 0,0 0,-25 0,-25 0,0 0.96,-12 0.96,-12 0,0 0,-12 0,-12 0,0 4.04,1 4.04,1 0,0 0.91,14 0.91,14 0,0 1.18,24 1.18,24 0,0 0.91,11 0.91,11 21.53,-0.06 44.33,-8.06 52,-30 0,0 -46,-20.69 -46,-20.69 0,0 -100,-45.62 -100,-45.62 0,0 -49,-21.45 -49,-21.45 -6.34,-1.5 -10.59,-1.31 -17,-1.24 -14.96,0.18 -40.64,14.11 -55,20.69 0,0 -73,33 -73,33 0,0 -33,15.31 -33,15.31 0,0 2.41,1.59 2.41,1.59 0,0 0.59,16.41 0.59,16.41 0,0 1,14 1,14 0,0 0,22 0,22 0,0 1,15 1,15 0,0 0,18 0,18 0,0 1,16 1,16 0,0 1,53 1,53 0,0 1,17 1,17 0,0 0,19 0,19 0,0 1,16 1,16 0,0 0,19 0,19 0,0 1,16 1,16 0,0 0,19 0,19 0,0 1,13 1,13 0,0 0,20 0,20 0,0 1,17 1,17 0,0 0,19 0,19 0,0 1,16 1,16 0,0 0,19 0,19 0,0 1,16 1,16 0,0 0,18 0,18 0,0 1,16 1,16 0,0 1,54 1,54 0,0 1,15 1,15 0,0 0,28 0,28 0,0 -1,10 -1,10 0,0 0,9 0,9 0,0 -2,33 -2,33 z m -15,-565 c 0,0 -54,24 -54,24 5.99,20.52 31.88,24.53 50,26 0,0 4,-50 4,-50 z"
     style="fill:url(#radialGradient20);stroke-width:10.56130743;stroke-miterlimit:4;stroke-dasharray:none;stroke:#babdb6;fill-opacity:1" />
  <rect
     style="color:#000000;overflow:visible;fill:url(#linearGradient16);stroke:#555753;stroke-width:0.756;stroke-linejoin:round;paint-order:stroke markers fill"
     id="rect2"
     width="289.65247"
     height="172.35518"
     x="402.16208"
     y="134.05402" />
  <path
     id="Selection #3"
     fill="none"
     stroke="#000000"
     stroke-width="1"
     d="m 527,178.41725 c 18.47,-2.25 48.43,3.35 60.47,18.59 4.83,6.12 6.44,12.34 6.53,19.99 0,0 -1,20 -1,20 0.02,13.92 6.84,9.32 14.19,24 4.91,9.82 3.93,20.35 3.81,31 0,0 -1,15 -1,15 0,0 -2,120 -2,120 0,0 -1,17 -1,17 0,0 0,28 0,28 -0.01,6.27 -0.88,16.3 -3.34,22 -9.86,22.94 -35.73,31.87 -58.66,34.17 -3.53,0.35 -5.17,0.95 -9,0.74 -23.8,-1.35 -54.36,-9.74 -64.54,-33.91 -4.56,-10.85 -3.33,-22.54 -3.46,-34 0,0 -1,-15 -1,-15 0,0 -2,-69 -2,-69 0,0 -0.96,-12 -0.96,-12 0,0 0,-17 0,-17 0,0 -1.04,-17 -1.04,-17 0,0 0,-14 0,-14 0,0 -1,-15 -1,-15 0,0 0,-14 0,-14 0,0 -0.82,-12 -0.82,-12 0.53,-7.25 2.89,-14.22 7.35,-20 4.76,-6.19 10.94,-8.68 10.3,-17 0,0 -0.83,-24 -0.83,-24 0.31,-25.6 28.42,-33.47 49,-36.58 z"
     style="fill:url(#linearGradient18);stroke:#555753;stroke-width:3.00037;stroke-miterlimit:4;stroke-dasharray:none" />
  <path
     id="Selection #1"
     fill="none"
     stroke="#000000"
     stroke-width="1"
     d="m 528.98205,185.22836 c 14.39858,-1.47331 34.0412,1.71746 44.95043,10.13636 8.35238,6.4573 9.98676,17.94069 3.23868,25.70292 -4.4018,5.05976 -11.17996,8.29262 -18.10852,10.36367 -10.24745,3.0729 -16.46411,3.21602 -27.07253,3.115 -17.25623,-0.1768 -43.71713,-8.21685 -41.92232,-26.09861 0.42113,-4.24313 2.78747,-8.55361 6.1565,-11.7107 8.16186,-7.64436 21.22687,-10.04375 32.75776,-11.50864 z"
     style="fill:url(#linearGradient20);stroke:#555753;stroke-width:2.75667;stroke-miterlimit:4;stroke-dasharray:none;fill-opacity:1" />
  <path
     id="Selection #2"
     fill="none"
     stroke="#000000"
     stroke-width="1"
     d="m 374.04,386.99825 c -14.69,0 -31.99,0.5 -43.95,-9.53 -5.3,-4.44 -6.93,-10.29 -9.28,-16.47 0,0 -10.62,-28 -10.62,-28 0,0 -41.59,-109 -41.59,-109 0,0 -17.41,-46 -17.41,-46 -2.67,-7.02 -6.05,-17.81 -2.62,-25 3.9,-8.18 13.52,-12.03 21.43,-15.2 0,0 47,-18.8 47,-18.8 0,0 148,-59.399986 148,-59.399986 0,0 37,-14.8 37,-14.8 14.93,-5.97 21.38,-9.99 38,-9.8 11.44,0.14 20.69,4.74 31,8.99 0,0 39,15.81 39,15.81 0,0 148,60.209986 148,60.209986 0,0 46,18.79 46,18.79 7.73,3.1 16.84,6.99 20.36,15.2 3.24,7.53 -0.3,17.86 -3.16,25 0,0 -18.2,45 -18.2,45 0,0 -28.4,70 -28.4,70 0,0 -16.88,42 -16.88,42 0,0 -10.12,25 -10.12,25 -2.69,6.71 -4.73,12.8 -10.62,17.47 -12.51,9.94 -29.04,8.53 -43.98,8.53 0,0 -2,107 -2,107 0,0 -1,17 -1,17 0,0 0,23 0,23 0,0 -1,16 -1,16 0,0 0,25 0,25 0,0 -1,16 -1,16 0,0 0,25 0,25 0,0 -1,16 -1,16 0,0 0,24 0,24 0,0 -1,16 -1,16 0,0 0,25 0,25 0,0 -1,17 -1,17 0,0 -1,64 -1,64 0,0 -1,17 -1,17 0,0 0,26 0,26 0,0 -1,15 -1,15 0,0 -1,63 -1,63 0,0 -292,0 -292,0 0,0 0,-19 0,-19 0,0 -1,-16 -1,-16 0,0 -2,-84 -2,-84 0,0 -1,-17 -1,-17 0,0 0,-17 0,-17 0,0 -1,-16 -1,-16 0,0 0,-18 0,-18 0,0 -1,-16 -1,-16 0,0 0,-18 0,-18 0,0 -1,-13 -1,-13 0,0 0,-19 0,-19 0,0 -1,-17 -1,-17 0,0 0,-17 0,-17 0,0 -1,-16 -1,-16 0,0 0,-18 0,-18 0,0 -1,-16 -1,-16 0,0 0,-18 0,-18 0,0 -1,-16 -1,-16 0,0 0,-18 0,-18 0,0 -1,-13 -1,-13 0,0 0,-19 0,-19 0,0 -1,-17 -1,-17 0,0 -1,-50 -1,-50 0,0 -0.96,-12 -0.96,-12 0,0 0,-12 0,-12 z M 529,169.27825 c -21.31,3.07 -41.6,5.75 -57.99,21.76 -5.39,5.27 -12.59,16 -11.65,23.96 0.95,7.98 6.96,15.62 12.64,20.91 13.35,12.42 38.94,19.87 57,20.09 22.46,0.26 44.86,-2.44 64,-15.36 7.82,-5.28 17.03,-14.98 18.67,-24.64 1.88,-11.03 -7.39,-23.06 -15.67,-29.24 -17.14,-12.81 -45.79,-19.45 -67,-17.48 z"
     style="fill:#555753;stroke-width:3.00037;stroke-miterlimit:4;stroke-dasharray:none;stroke:#555753" />
  <path
     id="Selection #7"
     fill="none"
     stroke="#000000"
     stroke-width="1"
     d="m 524,641.20825 c 0,0 13,0 13,0 45.18,-0.14 93.16,23.49 116.55,62.79 10.82,18.18 13.62,31.41 15.62,52 0,0 0.83,9 0.83,9 0.2,17.12 -3.69,34.65 -11.37,50 -19.11,38.22 -58.27,61.91 -99.63,68.56 -11.26,1.81 -22.63,1.57 -34,1.44 -9.93,-0.12 -27.45,-3.85 -37,-7 -48.37,-15.99 -88.38,-56.82 -89,-110 -0.2,-17.23 4.3,-41.71 12.32,-57 15.75,-30.02 42.48,-51.82 74.68,-62.26 14.32,-4.63 23.6,-5.27 38,-7.53 z"
     style="fill:url(#linearGradient8);stroke-width:3.00037;stroke-miterlimit:4;stroke-dasharray:none;stroke:#555753" />
  <path
     id="Selection #8"
     fill="none"
     stroke="#000000"
     stroke-width="1"
     d="m 525,703.41825 c 30.56,-3.72 66.26,10.86 82.54,37.58 8.78,14.42 10.43,29.5 10.46,46 0,0 1,17 1,17 0.02,12.29 1.75,20.53 -1.75,33 -8.49,30.31 -37.66,51.68 -68.25,55.71 -36.29,4.78 -75.82,-8.77 -93.68,-42.71 -7.13,-13.55 -7.34,-22.29 -7.32,-37 0,0 1.91,-24 1.91,-24 0.82,-11.71 1.01,-23.8 4.95,-35 6.69,-18.98 21.78,-34.53 40.14,-42.58 11.4,-4.99 17.9,-6.24 30,-8 z"
     style="fill:#555753;stroke-width:3.00037;stroke-miterlimit:4;stroke-dasharray:none;stroke:#555753" />
  <path
     id="Selection #9"
     fill="none"
     stroke="#000000"
     stroke-width="1"
     d="m 530,749.41825 c 5.11,-0.57 15.79,0.74 21,1.78 30.46,6.05 55.67,27.01 60.13,58.8 1.5,10.72 0.51,21.87 -3.58,32 -12.9,31.95 -45.1,45.38 -77.55,45 -43.98,-0.52 -82.82,-37.55 -72.99,-83 1.37,-6.3 4.1,-13.5 7.45,-19 11.4,-18.72 31.4,-30.15 52.54,-34.2 0,0 13,-1.38 13,-1.38 z"
     style="fill:url(#linearGradient10);stroke-width:3.00037;stroke-miterlimit:4;stroke-dasharray:none;stroke:#555753" />
  <path
     id="Selection #5"
     fill="none"
     stroke="#000000"
     stroke-width="1"
     d="m 525,278.41825 c 19.99,-2.44 47.37,2.99 61.91,17.67 3.54,3.57 6.92,9.05 8.3,13.91 2.22,7.78 1.02,22.04 -3.34,29 -5.87,9.38 -15.82,15.49 -25.87,19.55 -11.91,4.81 -24.35,5.59 -37,5.45 -18.42,-0.22 -44.96,-9.66 -53.62,-27 -2.39,-4.77 -3.55,-12.67 -3.34,-18 0.3,-7.78 3.16,-15.08 8.28,-20.96 11.29,-12.96 28.49,-17.17 44.68,-19.62 z"
     style="fill:url(#radialGradient14);stroke-width:3.00037;stroke-miterlimit:4;stroke-dasharray:none;stroke:#888a85;fill-opacity:1" />
  <path
     id="Selection #6"
     fill="none"
     stroke="#000000"
     stroke-width="1"
     d="m 528,284.41825 c 12.15,-1.48 29.2,1.47 39,9.11 13.76,10.73 13.76,31.21 0,41.94 -11.05,8.62 -23.61,9.68 -37,9.53 -12.64,-0.15 -31.11,-6.64 -36.47,-19 -1.9,-4.38 -1.59,-9.33 -1.53,-14 0.07,-4.97 0.66,-7.84 3.64,-12 7.78,-10.9 20,-13.71 32.36,-15.58 z"
     style="fill:url(#radialGradient12);stroke-width:3.00037;stroke-miterlimit:4;stroke-dasharray:none;stroke:#888a85;font-variation-settings:normal;opacity:1;vector-effect:none;fill-opacity:1;stroke-linecap:butt;stroke-linejoin:miter;stroke-dashoffset:0;stroke-opacity:1;-inkscape-stroke:none;stop-color:#000000;stop-opacity:1" />
  <path
     id="Selection #4"
     fill="none"
     stroke="#000000"
     stroke-width="1"
     d="m 419.02,476.73825 c 5.42,-1.32 15.05,-0.74 20.98,-0.74 0,0 38,0 38,0 0,0 124,0 124,0 0,0 40,0 40,0 4.44,0.06 8.18,0.51 11.11,4.33 3.8,4.94 1.9,12.77 1.89,18.67 0,0 0,37 0,37 0,0 -1.13,16 -1.13,16 0,0 0,23 0,23 0.13,2.09 0.2,5.01 0,7 -2.19,8.37 -8.72,8.99 -15.87,9 0,0 -171,0 -171,0 0,0 -37,0 -37,0 -4.5,-0.02 -8.25,-0.08 -11.77,-3.39 -4.2,-3.94 -4.22,-11.24 -4.23,-16.61 0,0 0,-25 0,-25 0,0 -1,-17 -1,-17 0,0 0,-28 0,-28 -0.11,-9.05 -3.97,-18.75 6.02,-24.26 z"
     style="fill:url(#linearGradient12);stroke-width:3.00037;stroke-miterlimit:4;stroke-dasharray:none;stroke:#888a85" />
</svg>
