<?xml version="1.0" encoding="UTF-8" standalone="no"?>
<!-- Created with Inkscape (http://www.inkscape.org/) -->

<svg
   width="420"
   height="420"
   viewBox="0 0 111.125 111.12504"
   version="1.1"
   id="svg1"
   inkscape:export-filename="../Fabrica/neblinux/icon.png"
   inkscape:export-xdpi="29.257143"
   inkscape:export-ydpi="29.257143"
   inkscape:version="1.4 (e7c3feb100, 2024-10-09)"
   sodipodi:docname="icon.svg"
   xmlns:inkscape="http://www.inkscape.org/namespaces/inkscape"
   xmlns:sodipodi="http://sodipodi.sourceforge.net/DTD/sodipodi-0.dtd"
   xmlns:xlink="http://www.w3.org/1999/xlink"
   xmlns="http://www.w3.org/2000/svg"
   xmlns:svg="http://www.w3.org/2000/svg">
  <sodipodi:namedview
     id="namedview1"
     pagecolor="#ffffff"
     bordercolor="#666666"
     borderopacity="1.0"
     inkscape:showpageshadow="2"
     inkscape:pageopacity="0.0"
     inkscape:pagecheckerboard="0"
     inkscape:deskcolor="#d1d1d1"
     inkscape:document-units="mm"
     inkscape:zoom="1.9047619"
     inkscape:cx="210"
     inkscape:cy="210"
     inkscape:current-layer="layer4" />
  <defs
     id="defs1">
    <linearGradient
       id="linearGradient27"
       inkscape:collect="always">
      <stop
         style="stop-color:#ffffff;stop-opacity:1;"
         offset="0"
         id="stop27" />
      <stop
         style="stop-color:#ffffff;stop-opacity:0;"
         offset="0.43444285"
         id="stop29" />
      <stop
         style="stop-color:#ffffff;stop-opacity:0;"
         offset="0.54704612"
         id="stop30" />
      <stop
         style="stop-color:#ffffff;stop-opacity:1;"
         offset="1"
         id="stop28" />
    </linearGradient>
    <linearGradient
       id="linearGradient15"
       inkscape:collect="always">
      <stop
         style="stop-color:#ffffff;stop-opacity:1;"
         offset="0"
         id="stop15" />
      <stop
         style="stop-color:#ffffff;stop-opacity:0;"
         offset="0.18713826"
         id="stop17" />
      <stop
         style="stop-color:#ffffff;stop-opacity:1;"
         offset="0.44470569"
         id="stop18" />
      <stop
         style="stop-color:#ffffff;stop-opacity:0;"
         offset="0.48380867"
         id="stop19" />
      <stop
         style="stop-color:#ffffff;stop-opacity:1;"
         offset="0.80422229"
         id="stop20" />
      <stop
         style="stop-color:#ffffff;stop-opacity:0;"
         offset="1"
         id="stop16" />
    </linearGradient>
    <linearGradient
       id="linearGradient5"
       inkscape:collect="always">
      <stop
         style="stop-color:#ffffff;stop-opacity:1;"
         offset="0"
         id="stop5" />
      <stop
         style="stop-color:#ffffff;stop-opacity:0;"
         offset="0.22243682"
         id="stop21" />
      <stop
         style="stop-color:#ffffff;stop-opacity:1;"
         offset="0.44244489"
         id="stop22" />
      <stop
         style="stop-color:#ffffff;stop-opacity:0;"
         offset="0.65556973"
         id="stop23" />
      <stop
         style="stop-color:#ffffff;stop-opacity:1;"
         offset="0.83553034"
         id="stop24" />
      <stop
         style="stop-color:#ffffff;stop-opacity:0;"
         offset="1"
         id="stop6" />
    </linearGradient>
    <filter
       inkscape:collect="always"
       style="color-interpolation-filters:sRGB"
       id="filter3"
       x="-0.028679576"
       y="-0.027493531"
       width="1.0573592"
       height="1.0549871">
      <feGaussianBlur
         inkscape:collect="always"
         stdDeviation="1.158386"
         id="feGaussianBlur3" />
    </filter>
    <radialGradient
       inkscape:collect="always"
       xlink:href="#linearGradient5"
       id="radialGradient6"
       cx="51.293037"
       cy="56.644703"
       fx="51.293037"
       fy="56.644703"
       r="47.628043"
       gradientTransform="matrix(0.63140887,0.57691392,-1.2033247,1.31699,87.068131,-47.478778)"
       gradientUnits="userSpaceOnUse" />
    <radialGradient
       inkscape:collect="always"
       xlink:href="#linearGradient15"
       id="radialGradient16"
       cx="55.879658"
       cy="55.04789"
       fx="55.879658"
       fy="55.04789"
       r="47.78336"
       gradientTransform="matrix(0.72329404,-0.84250423,1.0045127,0.86237913,-39.834071,54.654584)"
       gradientUnits="userSpaceOnUse"
       spreadMethod="pad" />
    <filter
       inkscape:collect="always"
       style="color-interpolation-filters:sRGB"
       id="filter20"
       x="-0.010737902"
       y="-0.010293892"
       width="1.0215857"
       height="1.0206407">
      <feGaussianBlur
         inkscape:collect="always"
         stdDeviation="0.30274547"
         id="feGaussianBlur20" />
    </filter>
    <filter
       inkscape:collect="always"
       style="color-interpolation-filters:sRGB"
       id="filter24"
       x="-0.013653445"
       y="-0.013653445"
       width="1.0273069"
       height="1.0273069">
      <feGaussianBlur
         inkscape:collect="always"
         stdDeviation="0.13787024"
         id="feGaussianBlur24" />
    </filter>
    <linearGradient
       inkscape:collect="always"
       xlink:href="#linearGradient27"
       id="linearGradient28"
       x1="36.638603"
       y1="6.3751016"
       x2="95.701492"
       y2="116.81894"
       gradientUnits="userSpaceOnUse" />
  </defs>
  <g
     inkscape:label="Shadow"
     inkscape:groupmode="layer"
     id="layer1"
     transform="translate(-41.054606,-87.200332)"
     style="display:inline">
    <path
       id="path888-28"
       style="display:inline;opacity:0.47119049;mix-blend-mode:normal;fill:#000000;fill-opacity:1;fill-rule:evenodd;stroke:none;stroke-width:0.187325;stroke-linecap:butt;stroke-linejoin:miter;stroke-dasharray:none;stroke-opacity:1;filter:url(#filter3)"
       d="m 107.06148,93.276305 c -0.81953,-0.0227 -1.62641,0.0829 -2.37621,0.3265 -11.928556,3.87549 -38.337912,12.455075 -50.266155,16.331135 -2.999134,0.97456 -5.429538,4.31976 -5.4296,7.47326 -2.47e-4,12.54217 -2.47e-4,40.30861 0,52.85096 6.2e-5,3.1535 2.430435,6.50184 5.4296,7.47628 11.928336,3.87559 38.337699,12.45517 50.266155,16.33114 2.99915,0.97452 6.93181,-0.30259 8.78531,-2.85387 7.37188,-10.14713 23.6936,-32.61296 31.06603,-42.75964 1.85366,-2.55118 1.85359,-6.68756 0,-9.23879 -7.37227,-10.14697 -23.69399,-32.60977 -31.06603,-42.756605 -1.39018,-1.91343 -3.95051,-3.11231 -6.4091,-3.18037 z M 93.218414,116.80861 a 27.025244,27.025244 0 0 1 27.027076,27.02407 27.025244,27.025244 0 0 1 -27.027076,27.02709 27.025244,27.025244 0 0 1 -27.024078,-27.02709 27.025244,27.025244 0 0 1 27.024078,-27.02407 z"
       inkscape:export-filename="/home/luciano/Projetos/Vapomatic/prog/logo.png"
       inkscape:export-xdpi="23.93"
       inkscape:export-ydpi="23.93" />
  </g>
  <g
     inkscape:groupmode="layer"
     id="layer2"
     inkscape:label="Fill"
     style="display:inline">
    <path
       id="path888"
       style="fill:#000000;fill-opacity:1;fill-rule:evenodd;stroke:none;stroke-width:0.28700001;stroke-linecap:butt;stroke-linejoin:miter;stroke-dasharray:none;stroke-opacity:1"
       d="m 65.477713,4.4884638 c -0.81953,-0.02269 -1.626414,0.0829 -2.376213,0.326502 -11.928553,3.875489 -38.33791,12.4550812 -50.266153,16.3311332 -2.9991339,0.974559 -5.4295379,4.319762 -5.4295999,7.473262 -2.47e-4,12.542173 -2.47e-4,40.308607 0,52.850961 6.2e-5,3.1535 2.430435,6.50184 5.4295999,7.47628 11.928336,3.87559 38.337693,12.455168 50.266153,16.331138 2.999149,0.97452 6.931813,-0.30259 8.785313,-2.85387 7.371885,-10.147128 23.693601,-32.612955 31.066027,-42.759635 1.85366,-2.551183 1.85359,-6.687563 0,-9.238789 C 95.580574,40.278473 79.258853,17.815668 71.886813,7.6688328 c -1.390179,-1.913433 -3.95051,-3.112311 -6.4091,-3.180369 z M 51.634643,28.020774 A 27.025244,27.025244 0 0 1 78.661719,55.044839 27.025244,27.025244 0 0 1 51.634643,82.071932 27.025244,27.025244 0 0 1 24.610568,55.044839 27.025244,27.025244 0 0 1 51.634643,28.020774 Z"
       inkscape:export-filename="/home/luciano/Projetos/Vapomatic/prog/logo.png"
       inkscape:export-xdpi="23.93"
       inkscape:export-ydpi="23.93" />
  </g>
  <g
     inkscape:groupmode="layer"
     id="layer4"
     inkscape:label="Flare"
     style="display:inline;opacity:1">
    <path
       id="path27"
       style="display:inline;opacity:0.62701577;mix-blend-mode:normal;fill:url(#linearGradient28);fill-opacity:1;fill-rule:evenodd;stroke:none;stroke-width:0.58637687;stroke-linecap:butt;stroke-linejoin:miter;stroke-dasharray:none;stroke-opacity:1"
       inkscape:label="Solid"
       transform="matrix(1.0095898,0,0,1.0095898,-0.5358257,-0.5278741)"
       d="m 65.282837,5.5149089 c -0.802895,-0.02223 -1.593444,0.08122 -2.328023,0.3198771 -11.686425,3.7968233 -37.559971,12.202166 -49.24609,15.99954 -2.938258,0.954777 -5.3189945,4.232029 -5.3190552,7.321517 -2.421e-4,12.287588 -2.421e-4,39.49047 0,51.778235 6.07e-5,3.08949 2.3807672,6.369957 5.3190552,7.324617 11.686211,3.796923 37.559757,12.202245 49.24609,15.999545 2.938271,0.95473 6.791348,-0.29673 8.607226,-2.79622 7.222248,-9.941153 23.21258,-31.950777 30.43535,-41.891496 1.81604,-2.499399 1.81597,-6.551687 0,-9.051127 C 94.774777,40.57839 78.78444,18.571353 71.56204,8.630481 70.200079,6.7558874 67.691523,5.5815855 65.282837,5.5149089 Z M 51.674881,27.778119 A 27.267832,27.267832 0 0 1 78.94451,55.044741 27.267832,27.267832 0 0 1 51.674881,82.314369 27.267832,27.267832 0 0 1 24.408259,55.044741 27.267832,27.267832 0 0 1 51.674881,27.778119 Z" />
    <path
       style="display:inline;opacity:0.663;mix-blend-mode:normal;fill:none;fill-opacity:1;fill-rule:evenodd;stroke:url(#radialGradient6);stroke-width:0.874879;stroke-linecap:butt;stroke-linejoin:miter;stroke-dasharray:none;stroke-opacity:1;filter:url(#filter24)"
       d="M 51.634574,26.909469 A 28.136481,28.136481 0 0 1 79.772909,55.044702 28.136481,28.136481 0 0 1 51.634574,83.183036 28.136481,28.136481 0 0 1 23.499341,55.044702 28.136481,28.136481 0 0 1 51.634574,26.909469 Z"
       id="path14"
       transform="matrix(0.97842103,0,0,0.97842103,1.1142542,1.1878412)"
       inkscape:label="In Contour" />
    <path
       style="display:inline;opacity:0.902;mix-blend-mode:normal;fill:none;fill-opacity:1;fill-rule:evenodd;stroke:url(#radialGradient16);stroke-width:0.58637687;stroke-linecap:butt;stroke-linejoin:miter;stroke-dasharray:none;stroke-opacity:1;filter:url(#filter20)"
       d="m 65.282837,5.5149089 c -0.802895,-0.02223 -1.593444,0.08122 -2.328023,0.3198771 -11.686425,3.7968233 -37.559971,12.202166 -49.24609,15.99954 -2.938258,0.954777 -5.3189945,4.232029 -5.3190552,7.321517 -2.421e-4,12.287588 -2.421e-4,39.49047 0,51.778235 6.07e-5,3.08949 2.3807672,6.369957 5.3190552,7.324617 11.686211,3.796923 37.559757,12.202245 49.24609,15.999545 2.938271,0.95473 6.791348,-0.29673 8.607226,-2.79622 7.222248,-9.941153 23.21258,-31.950777 30.43535,-41.891496 1.81604,-2.499399 1.81597,-6.551687 0,-9.051127 C 94.774777,40.57839 78.78444,18.571353 71.56204,8.630481 70.200079,6.7558874 67.691523,5.5815855 65.282837,5.5149089 Z"
       id="path4"
       transform="matrix(1.0095898,0,0,1.0095898,-0.5358257,-0.5278741)"
       inkscape:label="Out Contour" />
  </g>
</svg>
