<?xml version="1.0" encoding="UTF-8" standalone="no"?>
<svg
   xmlns:dc="http://purl.org/dc/elements/1.1/"
   xmlns:cc="http://creativecommons.org/ns#"
   xmlns:rdf="http://www.w3.org/1999/02/22-rdf-syntax-ns#"
   xmlns:svg="http://www.w3.org/2000/svg"
   xmlns="http://www.w3.org/2000/svg"
   xmlns:sodipodi="http://sodipodi.sourceforge.net/DTD/sodipodi-0.dtd"
   xmlns:inkscape="http://www.inkscape.org/namespaces/inkscape"
   width="50mm"
   height="50mm"
   viewBox="0 0 188.99975 188.99981"
   version="1.1"
   id="svg12"
   sodipodi:docname="desenho.svg"
   inkscape:version="1.0.2 (e86c870879, 2021-01-15)"
   inkscape:export-filename="/home/luciano/Projetos/Vapomatic/arte/lineart/lateral/lateral.png"
   inkscape:export-xdpi="150.00569"
   inkscape:export-ydpi="150.00569">
  <metadata
     id="metadata18">
    <rdf:RDF>
      <cc:Work
         rdf:about="">
        <dc:format>image/svg+xml</dc:format>
        <dc:type
           rdf:resource="http://purl.org/dc/dcmitype/StillImage" />
        <dc:title></dc:title>
      </cc:Work>
    </rdf:RDF>
  </metadata>
  <defs
     id="defs16" />
  <sodipodi:namedview
     pagecolor="#ffffff"
     bordercolor="#666666"
     borderopacity="1"
     objecttolerance="10"
     gridtolerance="10"
     guidetolerance="10"
     inkscape:pageopacity="0"
     inkscape:pageshadow="2"
     inkscape:window-width="640"
     inkscape:window-height="480"
     id="namedview14"
     showgrid="false"
     inkscape:zoom="4.111625"
     inkscape:cx="94.488189"
     inkscape:cy="94.488189"
     inkscape:current-layer="svg12"
     inkscape:document-rotation="0" />
  <g
     id="g849"
     transform="matrix(-0.16667508,0,0,0.16667508,186.04351,16.82834)">
    <path
       id="Selection"
       fill="none"
       stroke="#000000"
       stroke-width="1"
       d="m 487,371 c 0,0 -168,0 -168,0 -16.16,0.03 -37.4,5.32 -45.32,21 -1.88,3.73 -4.28,18.02 -5.28,23 0,0 -9.2,47 -9.2,47 0,0 -30.6,156 -30.6,156 0,0 -8.6,44 -8.6,44 -0.94,4.79 -1.99,14.94 -5.31,18.25 0,0 -33.69,23.47 -33.69,23.47 -3.08,2.15 -10.54,8.14 -14,8.39 -2.97,0.21 -16.2,-6.88 -20,-8.53 0,0 -19,-9.27 -19,-9.27 0,0 -36,-17.06 -36,-17.06 0,0 -34,-16.72 -34,-16.72 -5.82,-3.63 -10.22,-9.32 -9.45,-16.53 0.65,-6.05 11.44,-29.72 14.44,-37 0,0 32.59,-78 32.59,-78 0,0 104,-249 104,-249 0,0 33,-79 33,-79 0,0 17.05,-39 17.05,-39 3.24,-4.52 15.55,-14.83 20.37,-19.17 0,0 67,-60.11 67,-60.11 7.27,-6.4 26.15,-24.68 33,-28.55 9.72,-5.48 27.83,-8.15 39,-8.17 0,0 283,0 283,0 10.84,0.02 26.73,2.75 36,8.47 5.68,3.5 20.07,17.05 26,22.25 0,0 44,39.12 44,39.12 0,0 35,31 35,31 3.61,3.22 12.71,10.79 15.2,14.2 0,0 15.4,34.96 15.4,34.96 0,0 27.25,65 27.25,65 0,0 97.57,232 97.57,232 0,0 46.59,111 46.59,111 0,0 10.99,26 10.99,26 2.38,5.61 5.02,10.68 3.61,17 -1.61,7.23 -7.46,11.1 -13.61,14.24 0,0 -27,13.02 -27,13.02 0,0 -81,39.48 -81,39.48 0,0 -41,19.51 -41,19.51 0,0 -170,82.49 -170,82.49 0,0 -51,24.51 -51,24.51 0,0 -60,29 -60,29 -16.23,8.11 -33.42,17.53 -52,17.75 -23.97,0.28 -32.15,-4.4 -53,-14.75 0,0 -23,-10.99 -23,-10.99 0,0 -65,-31 -65,-31 0,0 -23,-11.26 -23,-11.26 0,0 19.58,-90 19.58,-90 0,0 43,-199 43,-199 0,0 22.21,-103 22.21,-103 0,0 12.21,-56 12.21,-56 z"
       style="fill:#ffffff;stroke-width:3.00037;stroke-miterlimit:4;stroke-dasharray:none" />
    <path
       id="Selection #1"
       fill="none"
       stroke="#000000"
       stroke-width="1"
       d="m 533,127.42 c 15.17,-1.85 40.63,-0.22 55,5.02 10.14,3.69 17.84,7.71 18,19.56 0,0 0,22 0,22 0,1.97 0.26,5.69 -0.99,7.27 -1.23,1.54 -4.17,1.95 -6.01,2.33 0,0 -17,2.55 -17,2.55 -22.66,2.71 -45.4,2.55 -68,-0.73 -3.97,-0.58 -18.84,-2.36 -21.01,-5.14 -1.25,-1.61 -0.99,-5.29 -0.99,-7.28 -0.01,-5.69 -0.88,-24.93 1.17,-29 2.73,-5.39 9.45,-8.68 14.83,-10.8 8.27,-3.26 16.3,-4.46 25,-5.78 z"
       style="fill:#ffffff;stroke-width:3.00037;stroke-miterlimit:4;stroke-dasharray:none" />
    <path
       id="Selection #2"
       fill="none"
       stroke="#000000"
       stroke-width="1"
       d="m 592,152 c -15.47,13.03 -44.92,13.07 -64,9.75 -4.76,-0.83 -11.76,-2.53 -16,-4.74 -1.83,-0.96 -4.8,-2.71 -4.8,-5.1 0,-2.43 2.99,-4.82 4.8,-6.06 4.72,-3.25 11.4,-4.99 17,-5.79 13.65,-2.44 27.38,-2.57 41,0 9.46,2.02 16.01,3.76 22,11.94 z"
       style="fill:#ffffff;stroke-width:3.00037;stroke-miterlimit:4;stroke-dasharray:none" />
    <path
       id="Selection #3"
       fill="none"
       stroke="#000000"
       stroke-width="1"
       d="m 164,714 c 0,0 8,-41 8,-41 0,0 18.8,-98 18.8,-98 0,0 60.8,-316 60.8,-316 0,0 8.6,-45 8.6,-45 0,0 4.05,-22.95 4.05,-22.95 -0.5,-4.91 -6.28,-4.64 -11.21,-8.02 -5.23,-3.59 -6.53,-12.35 -4.44,-18.03 1.6,-4.36 7.91,-9.05 11.4,-12.16 0,0 28,-25.12 28,-25.12 0,0 52,-46.8 52,-46.8 0,0 20,-18 20,-18 4.69,-4.32 10.24,-9.83 16,-12.59 8.24,-3.95 21.85,-5.32 31,-5.33 0,0 288,0 288,0 8.25,0.01 19.68,1.48 27,5.41 5.56,2.98 17.56,14.54 23,19.31 0,0 35,31.12 35,31.12 0,0 53,47.01 53,47.01 3.86,3.4 14.62,11.9 16.26,16.15 0.82,2.13 0.79,5.69 0.72,8 -0.31,10.68 -8.28,12.64 -16.98,15.14 0,0 -49,15.53 -49,15.53 0,0 -146,46 -146,46 0,0 -53,16.75 -53,16.75 -10.51,3.08 -17.54,6.44 -29,6.58 0,0 -11,0 -11,0 -8.09,-0.01 -14.32,-1.17 -22,-3.67 -2.26,-0.73 -7.84,-3.07 -9.97,-1.88 -2.11,1.18 -2.58,5.37 -3.03,7.55 0,0 -4.4,20 -4.4,20 0,0 -17.02,79 -17.02,79 0,0 -40,185 -40,185 0,0 -27.58,127 -27.58,127 0,0 -22,102 -22,102 0,0 -5.4,25 -5.4,25 -0.63,3.04 -1.14,6.98 -4.71,7.9 -3.06,0.79 -12.68,-4.17 -15.89,-5.68 0,0 -40,-19.36 -40,-19.36 0,0 -41,-19.6 -41,-19.6 0,0 -69,-33 -69,-33 0,0 -44,-21 -44,-21 0,0 -15,-7.26 -15,-7.26 z M 543,113.28 c 0,0 -13,0.89 -13,0.89 -12.27,1.17 -26.72,4.06 -38,8.98 -5.19,2.27 -14.59,7.39 -16.72,12.85 -2.32,5.94 7.42,12.15 11.72,14.56 12.09,6.79 36.08,11.42 50,11.44 23.59,0.04 42.18,0.62 65,-7.69 6.1,-2.22 18.13,-7.82 20.22,-14.31 2.47,-7.68 -10.6,-14.35 -16.22,-16.77 -14.59,-6.29 -30.27,-8.58 -46,-9.27 -7.41,-0.32 -8.03,-1.51 -17,-0.68 z"
       style="fill:#ffffff;stroke-width:3.00037;stroke-miterlimit:4;stroke-dasharray:none" />
    <path
       id="Selection #8"
       fill="none"
       stroke="#000000"
       stroke-width="1"
       d="m 433,160.42 c 14.24,-1.73 39.84,0.82 53,6.45 7.43,3.18 15.11,7.45 16.67,16.13 2.03,11.27 -4.01,18.35 -13.67,23.19 -12.58,6.31 -26.29,7.67 -40,8.98 -4.5,0.43 -6.12,0.93 -11,0.82 -12.77,-0.29 -31.44,-2.9 -43,-8.31 -7.89,-3.69 -13.73,-8.46 -13.98,-17.68 -0.09,-2.9 -0.11,-6.29 0.99,-9 2.36,-5.83 8.49,-9.66 13.99,-12.14 13.29,-5.98 23.12,-6.46 37,-8.44 z"
       style="fill:#ffffff;stroke-width:3.00037;stroke-miterlimit:4;stroke-dasharray:none" />
    <path
       id="Selection #9"
       fill="none"
       stroke="#000000"
       stroke-width="1"
       d="m 439,160.42 c 10.28,-1.24 34.37,1.98 41.58,9.91 1.76,1.92 2.64,4.14 3.09,6.67 2.98,16.64 -17.16,21.16 -29.67,22.71 -13.49,1.69 -35.11,1.78 -47,-5.7 -6.83,-4.3 -10.05,-15.23 -4.69,-21.97 3.45,-4.33 9.5,-6.64 14.69,-8.13 10.82,-3.1 12.4,-2.12 22,-3.49 z"
       style="fill:#ffffff;stroke-width:3.00037;stroke-miterlimit:4;stroke-dasharray:none" />
    <path
       id="Selection #5"
       fill="none"
       stroke="#000000"
       stroke-width="1"
       d="m 291,480.63 c 6.84,-1.04 8.44,-0.57 15,0 35.63,4.48 63.5,27.2 81.6,57.37 6.81,11.35 12.44,23.35 16.38,36 15.4,49.53 10.2,111.82 -27.98,150 -12.77,12.77 -23.57,19.28 -41,23.88 -10.22,2.7 -20.3,5.35 -31,5.11 C 254.13,751.86 215.24,708.54 200.33,664 193.75,644.33 189.76,623.81 190,603 c 0,0 0.91,-10 0.91,-10 2.67,-38.2 18.77,-79.09 53.09,-99.55 18.93,-11.28 26.86,-10.17 47,-12.82 z"
       style="fill:#ffffff;stroke-width:3.00037;stroke-miterlimit:4;stroke-dasharray:none" />
    <path
       id="Selection #6"
       fill="none"
       stroke="#000000"
       stroke-width="1"
       d="m 269,536.14 c 0,0 6,0 6,0 0,0 5,0 5,0 21.49,-0.11 39.27,12.71 51.28,29.86 20.25,28.93 24.37,68.78 9.86,101 -5.23,11.59 -15.74,23.85 -27.14,29.63 -9.51,4.83 -32.61,9.26 -44,11.79 -10.9,2.42 -25.13,6.81 -36,6.57 C 212.57,714.5 194.54,700.93 182.59,684 171.71,668.58 164.03,646.98 164,628 c 0,0 0,-15 0,-15 0.16,-13.03 5.21,-29.95 12.06,-41 6.63,-10.67 15.25,-19.62 26.94,-24.66 7.79,-3.37 17.59,-4.3 26,-5.47 0,0 40,-5.73 40,-5.73 z"
       style="fill:#ffffff;stroke-width:3.00037;stroke-miterlimit:4;stroke-dasharray:none" />
    <path
       id="Selection #7"
       fill="none"
       stroke="#000000"
       stroke-width="1"
       d="m 217,551.15 c 0,0 6,0 6,0 0,0 4,0 4,0 38.79,0.03 63.95,46.18 64,80.85 0,0 0,7 0,7 -0.05,32.74 -19.75,67.95 -56,68 0,0 -4,0 -4,0 -20.2,-0.24 -37.46,-15.78 -47.58,-32 -8.7,-13.95 -14.39,-31.47 -14.42,-48 0,0 0,-9 0,-9 0.05,-30.08 16.5,-60.67 48,-66.85 z"
       style="fill:#ffffff;stroke-width:3.00037;stroke-miterlimit:4;stroke-dasharray:none" />
    <path
       id="Selection #4"
       fill="none"
       stroke="#000000"
       stroke-width="1"
       d="m 275.04,287.74 c 6.63,-1.61 10.77,0.53 16.96,2.59 0,0 26,8.98 26,8.98 0,0 48,16.02 48,16.02 0,0 49,16.67 49,16.67 0,0 27,9.31 27,9.31 6.08,2.16 11.21,2.9 13.85,9.69 2.38,6.11 -2.09,20.23 -3.45,27 0,0 -14,66 -14,66 -1.8,8.93 -2.71,23.22 -15.4,21.63 -2.71,-0.33 -11.87,-4.03 -15,-5.21 0,0 -26,-9.74 -26,-9.74 0,0 -93,-34.87 -93,-34.87 0,0 -24,-9 -24,-9 -3.82,-1.45 -8.82,-2.8 -11.49,-6.02 -2.49,-3 -2.62,-7.08 -2.47,-10.79 0,0 8.56,-46 8.56,-46 0,0 7.8,-40 7.8,-40 1.33,-6.67 1.22,-12.56 7.64,-16.26 z"
       style="fill:#ffffff;stroke-width:3.00037;stroke-miterlimit:4;stroke-dasharray:none" />
  </g>
</svg>
